<?xml version="1.0" encoding="UTF-8"?>
<svg id="Layer_1" data-name="Layer 1" xmlns="http://www.w3.org/2000/svg" viewBox="0 0 400 200">
  <defs>
    <style>
      .cls-1 {
        fill: #2f88ec;
        fill-rule: evenodd;
      }
    </style>
  </defs>
  <path class="cls-1" d="M320.65,165.22l-5.99-9.26c0-4.99-4.06-9.04-9.05-9.04h-15.38l1.05-6.78c.74-4.77-2.94-9.08-7.78-9.08h-9.18v-10.99h-68.94v10.99h-11.51v15.87h-32.39v18.29h-7.27v-56l-61.01-38.61,44.97,38.61h.78v56h-16.78v-48.51h.23l-50.64-15.54,34.6,15.54h.56v48.51h-7.24v-15.25h.84v-5.19H14.49v5.19h1.3v15.25H.08v7.91c0,.78-.2,2.25.04,2.78,2.78,6.3,1.14,17.53,3.69,24.09h369.59c1.46-1.87,2.92-3.74,4.28-5.54,7.44-9.83,14.9-19.52,22.32-29.24h-79.35ZM259.21,124.74c.45-1.27,1.85-1.93,3.12-1.47,1.27.46,1.92,1.86,1.47,3.13-.45,1.27-1.85,1.93-3.12,1.47-1.27-.46-1.93-1.86-1.47-3.13ZM211.54,124.74c.46-1.27,1.85-1.93,3.12-1.47,1.28.46,1.94,1.86,1.47,3.13-.45,1.27-1.85,1.93-3.12,1.47-1.27-.46-1.92-1.86-1.47-3.13ZM264.87,138.99v-.92c0-1.52,1.25-2.77,2.77-2.77h2.52c1.52,0,2.77,1.25,2.77,2.77v4.58c0,1.52-1.25,2.77-2.77,2.77h-2.52c-1.52,0-2.77-1.25-2.77-2.77v-3.67ZM198.15,138.07c0-1.52,1.25-2.77,2.77-2.77h2.51c.76,0,1.44.31,1.95.8v2.88h.82v3.67c0,1.52-1.25,2.77-2.77,2.77h-2.51c-1.52,0-2.77-1.25-2.77-2.77v-4.58ZM198.15,158.51v-2.29c0-1.52,1.25-2.77,2.77-2.77h2.51c1.52,0,2.77,1.25,2.77,2.77v4.58c0,1.52-1.25,2.77-2.77,2.77h-2.51c-1.52,0-2.77-1.25-2.77-2.77v-2.3ZM249.4,158.51v2.3c0,1.52-1.25,2.77-2.77,2.77h-2.52c-1.52,0-2.77-1.25-2.77-2.77v-4.58c0-1.52,1.25-2.77,2.77-2.77h2.52c1.52,0,2.77,1.25,2.77,2.77v2.29ZM301.38,158.45c.45-1.27,1.85-1.93,3.12-1.46,1.28.45,1.94,1.85,1.47,3.12-.45,1.27-1.85,1.93-3.12,1.47-1.27-.46-1.93-1.85-1.47-3.13ZM291.77,158.45c.45-1.27,1.85-1.93,3.12-1.46,1.27.45,1.93,1.85,1.47,3.12-.45,1.27-1.85,1.93-3.12,1.47-1.28-.46-1.93-1.85-1.47-3.13ZM178.8,156.22c0-1.52,1.25-2.77,2.77-2.77h2.51c1.52,0,2.77,1.25,2.77,2.77v4.58c0,1.52-1.25,2.77-2.77,2.77h-2.51c-1.52,0-2.77-1.25-2.77-2.77v-4.58ZM18.38,149.97h78.7v15.25H18.38v-15.25ZM221.32,172.03c-.45,1.27-1.85,1.93-3.12,1.47-1.27-.46-1.93-1.86-1.47-3.13.03-.09.07-.19.12-.27.53-1.09,1.82-1.63,3-1.2.62.23,1.09.66,1.36,1.2.29.58.35,1.27.11,1.93ZM230.93,172.03c-.45,1.27-1.85,1.93-3.12,1.47-1.27-.46-1.93-1.86-1.47-3.13.03-.09.07-.19.12-.27.55-1.09,1.82-1.63,3.01-1.2.61.23,1.08.66,1.35,1.2.29.58.35,1.27.11,1.93ZM255.49,172.03c-.45,1.27-1.85,1.93-3.12,1.47-1.28-.46-1.94-1.86-1.47-3.13.03-.09.07-.19.12-.27.54-1.09,1.82-1.63,3-1.2.62.23,1.09.66,1.36,1.2.29.58.35,1.27.11,1.93ZM265.1,172.03c-.45,1.27-1.85,1.93-3.12,1.47-1.27-.46-1.92-1.86-1.47-3.13.03-.09.07-.19.12-.27.54-1.09,1.82-1.63,3-1.2.62.23,1.09.66,1.36,1.2.29.58.35,1.27.11,1.93Z"/>
</svg>