<?xml version="1.0" encoding="UTF-8"?>
<svg id="Layer_1" data-name="Layer 1" xmlns="http://www.w3.org/2000/svg" viewBox="0 0 50 50">
  <defs>
    <style>
      .cls-1 {
        fill: #fff;
      }
    </style>
  </defs>
  <path class="cls-1" d="M33.14,21.95v12.2h-15.31v-12.2h15.31Z"/>
  <path class="cls-1" d="M33.13,17.14h-15.29s-.02-.04-.02-.05c.02-.75-.02-1.5.06-2.24.21-1.92,1.17-3.39,2.77-4.45,1.17-.77,2.47-1.17,3.85-1.3,1.52-.15,2.99.03,4.42.6,1.36.54,2.49,1.37,3.28,2.61.66,1.04.94,2.19.94,3.41,0,.44,0,.88,0,1.32,0,.04,0,.08,0,.1Z"/>
  <path class="cls-1" d="M33.13,42.86s.01.04.01.05c0,.95.02,1.89-.02,2.83-.1,2.07-1.8,3.9-3.85,4.2-.26.04-.53.06-.79.06-2.02,0-4.04,0-6.06,0-2.48,0-4.55-2.02-4.59-4.5-.02-.85,0-1.71,0-2.56,0-.02,0-.05,0-.08h15.31Z"/>
  <path class="cls-1" d="M24.98,34.64c2.6,0,5.21,0,7.81,0,.29,0,.35.06.35.35,0,1.04,0,2.08,0,3.12,0,.3-.07.37-.37.37-5.22,0-10.44,0-15.65,0-.23,0-.27-.04-.27-.27,0-1.1,0-2.21,0-3.31,0-.21.04-.25.26-.25,2.62,0,5.25,0,7.87,0Z"/>
  <path class="cls-1" d="M24.96,21.46c-2.6,0-5.21,0-7.81,0-.26,0-.29-.03-.29-.29,0-1.09,0-2.18,0-3.27,0-.24.04-.28.28-.28,5.22,0,10.44,0,15.67,0,.27,0,.35.07.35.36,0,1.05,0,2.09,0,3.14,0,.26-.08.34-.35.34-2.61,0-5.23,0-7.84,0Z"/>
  <path class="cls-1" d="M33.13,38.94v3.4h-15.31v-3.36c.07,0,.14,0,.21,0,4.9,0,9.81,0,14.71,0,.12,0,.25-.02.39-.02Z"/>
  <path class="cls-1" d="M23.5,2.17C23.51.95,24.48,0,25.69,0c1.19,0,2.16,1,2.15,2.2,0,1.19-1,2.16-2.2,2.15-1.2,0-2.15-.97-2.15-2.18ZM25.67,1.26c-.49,0-.91.41-.91.91,0,.49.41.92.91.92.5,0,.92-.41.92-.9,0-.51-.41-.92-.92-.93Z"/>
  <path class="cls-1" d="M17.72,2.05c0-.41,0-.81,0-1.22,0-.24.09-.31.32-.28.9.14,1.8.28,2.7.42.19.03.24.08.24.27,0,.54,0,1.08,0,1.62,0,.19-.05.24-.24.27-.91.14-1.81.28-2.72.42-.21.03-.3-.04-.3-.25,0-.42,0-.84,0-1.26Z"/>
  <path class="cls-1" d="M27.29,8.73c-1.1-.21-2.19-.23-3.31-.08,0-.08,0-.15,0-.21,0-.53,0-1.06,0-1.59,0-.21.05-.26.25-.26.94,0,1.89,0,2.83,0,.17,0,.24.05.24.22,0,.61,0,1.22,0,1.84,0,.02,0,.05-.01.08Z"/>
  <path class="cls-1" d="M24.73,4.67c.62.24,1.27.23,1.89,0,.17.48.34.95.52,1.42h-2.93c.17-.46.34-.93.52-1.42Z"/>
  <path class="cls-1" d="M21.49,2.8v-1.47h1.66c-.13.48-.18.97-.06,1.47h-1.6Z"/>
</svg>